HIERARCHY
ROOT Hips
{
	OFFSET 0.000000 0.000000 0.000000
	CHANNELS 6 Xposition Yposition Zposition Zrotation Yrotation Xrotation 
	JOINT LHipJoint
	{
		OFFSET 0.000000 0.000000 0.000000
		CHANNELS 3 Zrotation Yrotation Xrotation
		JOINT LeftUpLeg
		{
			OFFSET 1.363060 -1.794630 0.839290
			CHANNELS 3 Zrotation Yrotation Xrotation
			JOINT LeftLeg
			{
				OFFSET 2.448110 -6.726130 0.000000
				CHANNELS 3 Zrotation Yrotation Xrotation
				JOINT LeftFoot
				{
					OFFSET 2.562200 -7.039590 0.000000
					CHANNELS 3 Zrotation Yrotation Xrotation
					JOINT LeftToeBase
					{
						OFFSET 0.157640 -0.433110 2.322550
						CHANNELS 3 Zrotation Yrotation Xrotation
						End Site
						{
							OFFSET 0.000000 0.000000 0.000000
						}
					}
				}
			}
		}
	}
	JOINT RHipJoint
	{
		OFFSET 0.000000 0.000000 0.000000
		CHANNELS 3 Zrotation Yrotation Xrotation
		JOINT RightUpLeg
		{
			OFFSET -1.305520 -1.794630 0.839290
			CHANNELS 3 Zrotation Yrotation Xrotation
			JOINT RightLeg
			{
				OFFSET -2.542530 -6.985550 0.000000
				CHANNELS 3 Zrotation Yrotation Xrotation
				JOINT RightFoot
				{
					OFFSET -2.568260 -7.056230 0.000000
					CHANNELS 3 Zrotation Yrotation Xrotation
					JOINT RightToeBase
					{
						OFFSET -0.164730 -0.452590 2.363150
						CHANNELS 3 Zrotation Yrotation Xrotation
						End Site
						{
							OFFSET 0.000000 0.000000 0.000000
						}
					}
				}
			}
		}
	}
	JOINT LowerBack
	{
		OFFSET 0.000000 0.000000 0.000000
		CHANNELS 3 Zrotation Yrotation Xrotation
		JOINT Spine
		{
			OFFSET 0.028270 2.035590 -0.193380
			CHANNELS 3 Zrotation Yrotation Xrotation
			JOINT Spine1
			{
				OFFSET 0.056720 2.048850 -0.042750
				CHANNELS 3 Zrotation Yrotation Xrotation
				JOINT Neck
				{
					OFFSET 0.000000 0.000000 0.000000
					CHANNELS 3 Zrotation Yrotation Xrotation
					JOINT Neck1
					{
						OFFSET -0.054170 1.746240 0.172020
						CHANNELS 3 Zrotation Yrotation Xrotation
						JOINT Head
						{
							OFFSET 0.104070 1.761360 -0.123970
							CHANNELS 3 Zrotation Yrotation Xrotation
							End Site
							{
								OFFSET 0.000000 0.000000 0.000000
							}
						}
					}
				}
				JOINT LeftShoulder
				{
					OFFSET 0.000000 0.000000 0.000000
					CHANNELS 3 Zrotation Yrotation Xrotation
					JOINT LeftArm
					{
						OFFSET 3.362410 1.200890 -0.311210
						CHANNELS 3 Zrotation Yrotation Xrotation
						JOINT LeftForeArm
						{
							OFFSET 4.983000 -0.000000 -0.000000
							CHANNELS 3 Zrotation Yrotation Xrotation
							JOINT LeftHand
							{
								OFFSET 3.483560 -0.000000 -0.000000
								CHANNELS 3 Zrotation Yrotation Xrotation
								JOINT LeftFingerBase
								{
									OFFSET 0.000000 0.000000 0.000000
									CHANNELS 3 Zrotation Yrotation Xrotation
									JOINT LeftHandIndex1
									{
										OFFSET 0.715260 -0.000000 -0.000000
										CHANNELS 3 Zrotation Yrotation Xrotation
										End Site
										{
											OFFSET 0.000000 0.000000 0.000000
										}
									}
								}
								JOINT LThumb
								{
									OFFSET 0.000000 0.000000 0.000000
									CHANNELS 3 Zrotation Yrotation Xrotation
									End Site
									{
										OFFSET 0.000000 0.000000 0.000000
									}
								}
							}
						}
					}
				}
				JOINT RightShoulder
				{
					OFFSET 0.000000 0.000000 0.000000
					CHANNELS 3 Zrotation Yrotation Xrotation
					JOINT RightArm
					{
						OFFSET -3.136600 1.374050 -0.404650
						CHANNELS 3 Zrotation Yrotation Xrotation
						JOINT RightForeArm
						{
							OFFSET -5.241900 -0.000000 -0.000000
							CHANNELS 3 Zrotation Yrotation Xrotation
							JOINT RightHand
							{
								OFFSET -3.444170 -0.000000 -0.000000
								CHANNELS 3 Zrotation Yrotation Xrotation
								JOINT RightFingerBase
								{
									OFFSET 0.000000 0.000000 0.000000
									CHANNELS 3 Zrotation Yrotation Xrotation
									JOINT RightHandIndex1
									{
										OFFSET -0.622530 -0.000000 -0.000000
										CHANNELS 3 Zrotation Yrotation Xrotation
										End Site
										{
											OFFSET 0.000000 0.000000 0.000000
										}
									}
								}
								JOINT RThumb
								{
									OFFSET 0.000000 0.000000 0.000000
									CHANNELS 3 Zrotation Yrotation Xrotation
									End Site
									{
										OFFSET 0.000000 0.000000 0.000000
									}
								}
							}
						}
					}
				}
			}
		}
	}
}
MOTION
Frames: 7
Frame Time: 0.008333
4.106444 16.774717 17.657424 -3.847448 38.394829 0.400078 -1.338798 -0.626515 -0.899310 -5.213213 17.730534 -36.040556 8.277326 16.628590 53.327006 1.352138 -2.997860 -17.558828 0.037600 1.250800 3.439300 0.666479 0.224685 -0.653079 -8.122172 7.041570 -21.309594 -4.291506 -12.882080 38.176146 1.676169 -21.402806 2.620101 -2.513400 -9.862200 28.531800 0.630834 -3.479038 7.578923 1.148408 -4.476512 -4.177663 2.200677 -2.297858 -1.172701 -7.792889 -10.504337 -7.504499 8.161404 -14.529870 12.017358 1.665800 -6.933900 4.003500 10.342330 -4.225155 2.258916 -93.374877 11.155567 61.956890 58.236366 -57.104449 -26.269256 -1.814859 -0.137143 -16.599503 -28.527740 18.225590 -8.898800 -7.125000 0.000000 0.000000 -47.025600 42.736000 3.516400 -8.470372 3.759085 0.696815 96.913840 -17.556885 37.312231 -105.150397 56.830663 -70.684499 0.920320 -0.670484 1.326090 2.744747 -16.322458 -0.488500 7.125000 0.000000 0.000000 26.696000 -43.880500 0.798100 
4.033257 16.718313 17.755892 -3.746661 38.454508 0.945996 -1.288833 -0.651649 -0.960484 -4.333114 16.529797 -35.813553 8.347149 16.665123 53.513743 1.459074 -3.968052 -17.603096 0.028500 1.089300 2.994500 0.639056 0.221610 -0.649231 -8.172661 5.881754 -22.306839 -4.591625 -13.238215 39.487112 1.746381 -22.259086 3.247953 -1.974400 -8.812500 25.210400 0.813856 -3.417127 7.074097 1.070079 -4.410460 -4.256836 1.903532 -2.263185 -1.084731 -7.803006 -10.588699 -7.387025 8.362134 -14.683174 11.868516 1.734200 -7.009200 3.961200 10.329150 -4.237680 2.255594 -93.261269 11.301301 61.748955 58.553320 -57.186968 -26.525327 -1.807083 -0.161094 -16.020009 -29.119225 17.936004 -9.008900 -7.125000 0.000000 0.000000 -47.244000 42.458100 3.991400 -8.487675 3.754337 0.697754 96.712895 -17.725523 38.553031 -105.958294 56.677814 -71.447688 0.936587 -0.726613 3.361602 2.087725 -15.245317 -0.278800 7.125000 0.000000 0.000000 25.653400 -42.967300 1.385900 
3.952953 16.659679 17.857122 -3.447607 38.598535 1.729678 -1.257395 -0.689031 -1.029382 -3.558463 15.171842 -35.636352 8.385764 16.682428 53.605567 1.562139 -5.005696 -17.605498 0.013200 0.742200 2.039800 0.613926 0.228193 -0.652398 -8.344322 4.646026 -23.544478 -4.970065 -13.667145 41.103378 1.890370 -23.407638 3.482604 -1.342000 -7.334600 20.710500 0.801870 -3.383250 6.434556 0.955092 -4.396367 -4.342302 1.619095 -2.254894 -0.922736 -7.795567 -10.656824 -7.273829 8.624025 -14.825215 11.671326 1.819300 -7.077500 3.904100 10.311360 -4.249684 2.248560 -93.078807 11.449887 61.504471 58.865785 -57.261622 -26.779701 -1.793918 -0.187411 -15.560212 -29.682413 17.614799 -9.090400 -7.125000 0.000000 0.000000 -47.420200 42.155900 4.509600 -8.505216 3.744917 0.702118 96.597484 -17.935389 39.793677 -106.663530 56.530905 -72.133463 0.987578 -0.794599 5.106948 0.297285 -14.339670 0.179400 7.125000 0.000000 0.000000 23.719500 -42.301600 1.683700 
3.865107 16.601256 17.962919 -3.003958 38.821897 2.676602 -1.238303 -0.732027 -1.103411 -2.833551 13.707164 -35.485469 8.390405 16.678542 53.587134 1.656805 -6.122706 -17.531695 0.001100 0.215000 0.590700 0.591679 0.241155 -0.659484 -8.592472 3.486437 -24.861133 -5.384261 -14.110182 42.823002 2.084497 -24.647210 3.367634 -0.750000 -5.531700 15.431600 0.620652 -3.372824 5.699180 0.811981 -4.419425 -4.427393 1.354244 -2.265868 -0.697466 -7.779817 -10.717604 -7.163002 8.944431 -14.967071 11.454037 1.919800 -7.143900 3.842600 10.289656 -4.261671 2.237982 -92.824371 11.594928 61.261311 59.132891 -57.318337 -27.004831 -1.778585 -0.215340 -15.347964 -30.217539 17.371057 -9.194500 -7.125000 0.000000 0.000000 -47.621800 41.913000 4.944500 -8.521103 3.731612 0.710931 96.587181 -18.192771 40.989230 -107.236448 56.396642 -72.711064 1.068998 -0.865747 6.426569 -2.424984 -13.652187 0.802200 7.125000 0.000000 0.000000 21.069600 -41.900000 1.694900 
3.770357 16.545384 18.074240 -2.457649 39.120460 3.704996 -1.227238 -0.774272 -1.178020 -2.111617 12.179833 -35.321597 8.358177 16.651622 53.443267 1.739474 -7.344433 -17.347880 0.005500 -0.478300 -1.314200 0.572048 0.257958 -0.667748 -8.881853 2.468352 -26.127344 -5.799130 -14.526678 44.494347 2.271109 -25.709810 3.126049 -0.279000 -3.397400 9.387200 0.291426 -3.387695 4.932350 0.651686 -4.473820 -4.507232 1.125955 -2.293312 -0.434919 -7.768606 -10.776699 -7.056286 9.302857 -15.112379 11.253321 2.030100 -7.210700 3.789300 10.265212 -4.273692 2.224390 -92.509891 11.728665 61.036858 59.329300 -57.352522 -27.183524 -1.763661 -0.244834 -15.464977 -30.743518 17.283017 -9.369400 -7.125000 0.000000 0.000000 -47.909200 41.787900 5.208000 -8.533740 3.716032 0.724701 96.667712 -18.501563 42.112114 -107.657425 56.281252 -73.157905 1.171633 -0.929255 7.198826 -5.774465 -13.169693 1.518600 7.125000 0.000000 0.000000 17.939500 -41.725100 1.503000 
3.669234 16.493653 18.191403 -1.871549 39.496538 4.702809 -1.219463 -0.808705 -1.247111 -1.326927 10.619592 -35.079443 8.286534 16.599220 53.158911 1.809299 -8.718222 -17.038743 0.041300 -1.312100 -3.607900 0.555111 0.275274 -0.674606 -9.158260 1.607270 -27.217272 -6.187634 -14.893494 46.016779 2.394497 -26.396011 2.969476 -0.021700 -0.950400 2.612200 -0.146443 -3.433425 4.218530 0.491804 -4.559359 -4.573343 0.957828 -2.337348 -0.163852 -7.789421 -10.835982 -6.967912 9.677205 -15.257966 11.107103 2.146100 -7.276100 3.760200 10.239781 -4.285894 2.209191 -92.175725 11.844408 60.835135 59.445658 -57.363741 -27.303557 -1.748556 -0.273496 -15.926217 -31.188203 17.343170 -9.586300 -7.125000 0.000000 0.000000 -48.234700 41.783200 5.280500 -8.541413 3.699852 0.743874 96.806045 -18.866314 43.150812 -107.901859 56.191794 -73.447131 1.286935 -0.976734 7.446660 -9.491170 -12.847391 2.289800 7.125000 0.000000 0.000000 14.521100 -41.721700 1.202500 
3.562799 16.446278 18.313665 -1.314548 39.889788 5.599970 -1.206865 -0.830132 -1.306615 -0.423647 9.075412 -34.731082 8.175367 16.518912 52.722276 1.867858 -10.339712 -16.597392 0.115900 -2.195300 -6.045800 0.540354 0.290402 -0.679143 -9.370221 0.913322 -28.118815 -6.535664 -15.203625 47.348165 2.425885 -26.612462 2.974514 -0.061000 1.593100 -4.382500 -0.626118 -3.483151 3.601202 0.337505 -4.638414 -4.628699 0.832110 -2.378928 0.080816 -7.832672 -10.904516 -6.886829 10.036802 -15.413531 11.035642 2.256300 -7.345200 3.758000 10.213662 -4.298601 2.192257 -91.824127 11.941078 60.682196 59.486835 -57.356285 -27.374546 -1.738463 -0.302605 -16.687920 -31.661569 17.626250 -9.931100 -7.125000 0.000000 0.000000 -48.716800 41.945500 5.096700 -8.542600 3.686099 0.769748 97.002910 -19.306962 44.069379 -107.972707 56.130574 -73.576348 1.406793 -1.002441 7.229155 -13.354151 -12.651826 3.094000 7.125000 0.000000 0.000000 10.987500 -41.851000 0.865100 
